<svg id="Fill_Outline" height="512" viewBox="0 0 64 64" width="512" xmlns="http://www.w3.org/2000/svg" data-name="Fill Outline"><g id="Color"><path d="m21 10h-14a4 4 0 0 0 -4 4v10a4 4 0 0 0 4 4h6l7 7v-7h1a4 4 0 0 0 4-4v-10a4 4 0 0 0 -4-4z" fill="#ff7373"/><path d="m25 24a4 4 0 0 1 -4 4h-1v7l-7-7h-6a4 4 0 0 1 -4-4v-10a4 4 0 0 1 4-4h5v3a10.994 10.994 0 0 0 11 11z" fill="#ef5350"/><path d="m40.877 20.767a5.942 5.942 0 1 0 -11.625 2.451l.5 2.413a3.065 3.065 0 0 1 -.4 2.237l-1.469 2.364a3.063 3.063 0 0 0 -.16 2.94l.574 1.2a3.061 3.061 0 0 1 -.113 2.861 3.063 3.063 0 0 0 2.1 4.55l6.716 1.217v-15.349a6 6 0 0 0 3.877-6.884z" fill="#93999a"/><path d="m30.288 41.78 6.712 1.22v-15.349a6 6 0 0 0 -.7-11.515c-.1-.022-.2-.028-.306-.044a6.007 6.007 0 0 0 -4.563 3.682 5.7 5.7 0 0 0 -.211 3.266c.158.762.373 1.8.538 2.6a3.056 3.056 0 0 1 -.4 2.233l-1.469 2.364a3.063 3.063 0 0 0 -.16 2.94l.574 1.2.012.025a1.892 1.892 0 0 1 -1.79 2.598h-.24a2.442 2.442 0 0 1 -.1.23 3.063 3.063 0 0 0 2.103 4.55z" fill="#656b76"/><path d="m46.621 15.638a7.855 7.855 0 0 0 -8.278-.174 4.338 4.338 0 0 0 -2.343 3.536c0 2.761 3.582 5 8 5v24l8.839-2.525a4.71 4.71 0 0 0 3.028-6.4 4.71 4.71 0 0 1 .1-3.958l.2-.408a4.709 4.709 0 0 0 -1.61-6l-.457-.309a4.709 4.709 0 0 1 -2.1-3.92v-1a8.084 8.084 0 0 0 -3.8-6.856z" fill="#b8bebf"/><path d="m55.843 39a2.041 2.041 0 0 1 -1.89-2.853l.013-.028.2-.408a4.709 4.709 0 0 0 -1.61-6l-.456-.311a4.709 4.709 0 0 1 -2.1-3.92v-1a8.085 8.085 0 0 0 -3.8-6.856l-1.578-.987a8.048 8.048 0 0 0 -6.689-.892 4.125 4.125 0 0 0 -1.933 3.255c0 2.761 3.582 5 8 5v24l8.839-2.526a4.709 4.709 0 0 0 3.028-6.4c-.011-.024-.014-.051-.024-.074z" fill="#93999a"/><path d="m25.585 41.267h6v17h-6z" fill="#0096c7" transform="matrix(.707 .707 -.707 .707 43.563 -5.636)"/><path d="m49 61h-15v-5.431a7.973 7.973 0 0 0 -1.5-4.654 7.974 7.974 0 0 1 -1.5-4.655 8.26 8.26 0 0 1 8.26-8.26h6.74a8 8 0 0 1 8 8v10a5 5 0 0 1 -5 5z" fill="#48cae4"/><path d="m48 53a11 11 0 0 1 -11-11v-3.679a8.258 8.258 0 0 0 -6 7.939 7.974 7.974 0 0 0 1.5 4.655 7.973 7.973 0 0 1 1.5 4.654v5.431h15a5 5 0 0 0 5-5v-3z" fill="#00b4d8"/><path d="m48 46a0 0 0 0 1 0 0v8a0 0 0 0 1 0 0h-2a0 0 0 0 1 0 0v-6a2 2 0 0 1 2-2z" fill="#00b4d8"/><path d="m20 57h15a0 0 0 0 1 0 0 4 4 0 0 1 -4 4h-11a0 0 0 0 1 0 0v-4a0 0 0 0 1 0 0z" fill="#b8bebf"/><path d="m20.96 41h-13.96a4 4 0 0 0 -3.98 4.4l1.2 12a4 4 0 0 0 3.98 3.6h16.17a2 2 0 0 0 1.991-2.2l-1.42-14.2a4 4 0 0 0 -3.981-3.6z" fill="#e9f1f2"/><path d="m26.36 58.8a2 2 0 0 1 -1.99 2.2h-16.17a4 4 0 0 1 -3.98-3.6l-1.2-12a3.994 3.994 0 0 1 3.98-4.4h.25a17.355 17.355 0 0 0 17.01 14h1.72z" fill="#d0d8da"/><circle cx="14" cy="51" fill="#f9dbaf" r="2"/><path d="m14 53a1.983 1.983 0 0 0 1.308-.5 17.264 17.264 0 0 1 -2.668-1.98c-.146-.132-.28-.275-.421-.412a1.973 1.973 0 0 0 -.219.892 2 2 0 0 0 2 2z" fill="#edb88e"/><path d="m48 47v8l-11 1v5h12a5 5 0 0 0 5-5v-9z" fill="#48cae4"/><path d="m34 56h3a0 0 0 0 1 0 0v5a0 0 0 0 1 0 0h-6a0 0 0 0 1 0 0v-2a3 3 0 0 1 3-3z" fill="#f9dbaf"/><path d="m37 32h8a0 0 0 0 1 0 0v5a5 5 0 0 1 -5 5 3 3 0 0 1 -3-3v-7a0 0 0 0 1 0 0z" fill="#edb88e"/><path d="m39.1 38.995a6.993 6.993 0 0 0 5.9-3.4v-3.595h-8v7a3 3 0 0 0 3 3 4.951 4.951 0 0 0 3.058-1.071 6.979 6.979 0 0 1 -3.958-1.934z" fill="#da9367"/><path d="m40 37a7 7 0 0 1 -7-7v-2.491a10.06 10.06 0 0 1 3.366-7.509 10.194 10.194 0 0 0 7.816 3.335 2.73 2.73 0 0 1 2.072.868 2.765 2.765 0 0 1 .746 1.889v3.908a7 7 0 0 1 -7 7z" fill="#f9dbaf"/><path d="m46.254 24.2a2.73 2.73 0 0 0 -2.072-.868 10.194 10.194 0 0 1 -7.816-3.332 10.06 10.06 0 0 0 -3.366 7.509v2.491a7 7 0 0 0 13.632 2.227 6.983 6.983 0 0 1 -11.632-5.227v-2.491a10.03 10.03 0 0 1 .06-1.085 10.037 10.037 0 0 1 1.306-1.424 10.194 10.194 0 0 0 7.816 3.335 2.709 2.709 0 0 1 1.179.238 3.67 3.67 0 0 0 -1.361 2.927 3.318 3.318 0 0 0 2.717 3.46 7.009 7.009 0 0 0 .283-1.96v-3.908a2.765 2.765 0 0 0 -.746-1.892z" fill="#edb88e"/><ellipse cx="48" cy="27.5" fill="#ef5350" rx="3" ry="3.5"/><circle cx="9" cy="16" fill="#f9dbaf" r="2"/><path d="m9 18a2 2 0 0 1 2 2v2a0 0 0 0 1 0 0h-4a0 0 0 0 1 0 0v-2a2 2 0 0 1 2-2z" fill="#f9dbaf"/><path d="m50.75 28.89a3.027 3.027 0 0 1 -2.75 2.11 3.279 3.279 0 0 1 -3-3.5 3.42 3.42 0 0 1 2.25-3.38 3.889 3.889 0 0 0 -.25 1.38 3.279 3.279 0 0 0 3 3.5 2.668 2.668 0 0 0 .75-.11z" fill="#e53935"/><g fill="#edb88e"><path d="m37 56v5h-6v-2h2a3 3 0 0 0 3-3z"/><path d="m10 17a1.992 1.992 0 0 1 -1.82-2.82 2 2 0 1 0 2.64 2.64 1.99 1.99 0 0 1 -.82.18z"/><path d="m10 20a1.993 1.993 0 0 1 -1.973-1.737 1.992 1.992 0 0 0 -1.027 1.737v2h4v-2a1.905 1.905 0 0 0 -.027-.263 1.972 1.972 0 0 1 -.973.263z"/></g></g><g id="Outline_copy" fill="#323232" data-name="Outline copy"><path d="m56.869 35.558.2-.4a5.711 5.711 0 0 0 -1.947-7.274l-.461-.31a3.724 3.724 0 0 1 -1.661-3.094v-1a8.945 8.945 0 0 0 -.45-2.8 1 1 0 1 0 -1.9.625 6.961 6.961 0 0 1 .35 2.175v1c0 .028.005.055.005.082a3.811 3.811 0 0 0 -3.005-1.562c-.025 0-.048.008-.073.008a10.063 10.063 0 0 0 -4.662-7.56 7.311 7.311 0 0 1 2.824 1.039l1.591 1a6.6 6.6 0 0 1 1.1.853 1 1 0 1 0 1.377-1.451 8.617 8.617 0 0 0 -1.428-1.1l-1.58-.99a8.878 8.878 0 0 0 -9.345-.178 7.916 7.916 0 0 0 -.882.655c-.141-.04-.281-.083-.424-.112a6.867 6.867 0 0 0 -8.227 8.264l.5 2.414a2.054 2.054 0 0 1 -.268 1.506l-1.469 2.364a4.049 4.049 0 0 0 -.212 3.9l.574 1.2a2.064 2.064 0 0 1 -.075 1.927 4.044 4.044 0 0 0 .322 4.553 1 1 0 0 0 1.573-1.235 2.054 2.054 0 0 1 -.165-2.315 4.061 4.061 0 0 0 .149-3.8l-.574-1.2a2.055 2.055 0 0 1 .107-1.98l1.467-2.362a4.045 4.045 0 0 0 .527-2.967l-.5-2.414a4.849 4.849 0 0 1 5.26-5.987 4.315 4.315 0 0 0 -.487 1.968 4.123 4.123 0 0 0 .1.85 11.058 11.058 0 0 0 -3.1 7.659v2.491a8 8 0 0 0 4 6.918v.682a9.264 9.264 0 0 0 -4.416 3.513l-5.443 5.443-.2-2.053a4.985 4.985 0 0 0 -4.981-4.503h-13.96a5 5 0 0 0 -4.975 5.5l.355 3.553a1 1 0 0 0 1.991-.2l-.355-3.553a3 3 0 0 1 2.984-3.3h13.96a2.989 2.989 0 0 1 2.985 2.7l1.42 14.2a1 1 0 0 1 -.994 1.1h-16.171a2.991 2.991 0 0 1 -2.985-2.7l-.446-4.467a1 1 0 0 0 -1.991.2l.447 4.467a4.985 4.985 0 0 0 4.975 4.5h40.8a6.006 6.006 0 0 0 6-6v-6a1 1 0 0 0 -2 0v6a4 4 0 0 1 -4 4h-11v-3.087l10.09-.913a1 1 0 0 0 .91-1v-8a1 1 0 0 0 -2 0v7.087l-10.047.913h-2a8.9 8.9 0 0 0 -1.644-4.669 6.934 6.934 0 0 1 -1.309-4.07 7.283 7.283 0 0 1 4.076-6.511 4 4 0 0 0 3.924 3.25 6 6 0 0 0 5.65-4h.35a7.008 7.008 0 0 1 7 7 1 1 0 0 0 2 0c0-.175-.016-.346-.026-.519a5.707 5.707 0 0 0 1.813-6.811 3.654 3.654 0 0 1 .082-3.112zm-28.86 20.442 3.991-3.99a6.894 6.894 0 0 1 .969 3.142 3.97 3.97 0 0 0 -1.587.848zm2.024-10.509c-.022.255-.033.511-.033.77a8.918 8.918 0 0 0 .936 3.984l-4.024 4.023-.512-5.142zm-2.748 12.509h2.857a3.939 3.939 0 0 0 -.142 1v1h-2.808a2.991 2.991 0 0 0 .163-1.3zm8.715 2h-4v-1a2 2 0 0 1 2-2h2zm14-32.5a2.3 2.3 0 0 1 -2 2.5 2.3 2.3 0 0 1 -2-2.5 2.3 2.3 0 0 1 2-2.5 2.3 2.3 0 0 1 2 2.5zm-11.131-11.191a6.029 6.029 0 0 1 .743-.388l1.479.635a8.086 8.086 0 0 1 4.809 6.174 3.643 3.643 0 0 0 -1.741-.395 9.114 9.114 0 0 1 -7.049-3.008.89.89 0 0 0 -.079-.058 2.077 2.077 0 0 1 -.031-.269 3.393 3.393 0 0 1 1.869-2.691zm-4.869 13.691v-2.491a9.066 9.066 0 0 1 2.361-6.1 11.3 11.3 0 0 0 7.848 2.925 1.648 1.648 0 0 1 .817.185 4.783 4.783 0 0 0 -1.026 2.981 4.868 4.868 0 0 0 .621 2.383l-.77.554a8.266 8.266 0 0 1 -4.851 1.563 1 1 0 0 0 0 2 10.251 10.251 0 0 0 6.019-1.94l.769-.554a5.989 5.989 0 0 1 -11.788-1.506zm6 11a2 2 0 0 1 -2-2v-1.263a7.9 7.9 0 0 0 6-.812v.075a4 4 0 0 1 -4 4zm15.271-6.728-.2.4a5.642 5.642 0 0 0 -.125 4.791 3.724 3.724 0 0 1 -.423 3.679 9.011 9.011 0 0 0 -8.523-6.142v-1.712a7.951 7.951 0 0 0 1.745-3.317c.086.006.168.029.255.029a4.248 4.248 0 0 0 3.984-4.328 5.76 5.76 0 0 0 1.558 1.558l.464.313a3.709 3.709 0 0 1 1.265 4.729z"/><path d="m17 51a3 3 0 1 0 -3 3 3 3 0 0 0 3-3zm-4 0a1 1 0 1 1 1 1 1 1 0 0 1 -1-1z"/><path d="m7 29h5.586l6.707 6.707a1 1 0 0 0 .707.293.987.987 0 0 0 .383-.076 1 1 0 0 0 .617-.924v-6a5.006 5.006 0 0 0 5-5v-10a5.006 5.006 0 0 0 -5-5 1 1 0 0 0 0 2 3 3 0 0 1 3 3v10a3 3 0 0 1 -3 3h-1a1 1 0 0 0 -1 1v4.586l-5.293-5.293a1 1 0 0 0 -.707-.293h-6a3 3 0 0 1 -3-3v-10a3 3 0 0 1 3-3h10a1 1 0 0 0 0-2h-10a5.006 5.006 0 0 0 -5 5v10a5.006 5.006 0 0 0 5 5z"/><path d="m9 13a2.987 2.987 0 0 0 -2.22 5 2.981 2.981 0 0 0 -.78 2v2a1 1 0 0 0 1 1h4a1 1 0 0 0 1-1v-2a2.981 2.981 0 0 0 -.78-2 2.987 2.987 0 0 0 -2.22-5zm0 2a1 1 0 1 1 -1 1 1 1 0 0 1 1-1zm1 6h-2v-1a1 1 0 0 1 2 0z"/><path d="m21 13h-3a1 1 0 0 0 0 2h3a1 1 0 0 0 0-2z"/><path d="m21 17h-6a1 1 0 0 0 0 2h6a1 1 0 0 0 0-2z"/><path d="m21 21h-6a1 1 0 0 0 0 2h6a1 1 0 0 0 0-2z"/><circle cx="36" cy="27" r="1"/><circle cx="41" cy="27" r="1"/><path d="m44.03 47.758-.03.119a4.116 4.116 0 0 1 -4 3.123 1 1 0 0 0 0 2 6.113 6.113 0 0 0 5.94-4.639l.03-.119a1 1 0 1 0 -1.94-.484z"/></g></svg>