<svg id="Capa_1" enable-background="new 0 0 512 512" height="512" viewBox="0 0 512 512" width="512" xmlns="http://www.w3.org/2000/svg"><g><g><g><g><g><g><path d="m433.377 361.214h-67.19s-48.2-5.651-50.154 83.845c-.086 3.953 1.846 7.663 5.079 9.939 9.413 6.627 32.807 18.645 78.67 18.645s69.257-12.018 78.67-18.645c3.233-2.276 5.165-5.986 5.079-9.939-1.954-89.495-50.154-83.845-50.154-83.845z" fill="#31a7fb"/><g fill="#1c96f9"><path d="m452.362 365.951c-8.056 21.191-28.557 36.252-52.581 36.252s-44.524-15.061-52.58-36.252c10.209-5.769 18.986-4.739 18.986-4.739h67.188c.001.001 8.778-1.03 18.987 4.739z"/><path d="m483.535 445.059c.082 3.956-1.854 7.664-5.089 9.941-9.405 6.624-32.801 18.646-78.664 18.646-5.985 0-11.579-.206-16.813-.577 34.913-2.462 53.673-12.311 61.852-18.069 3.235-2.277 5.172-5.985 5.079-9.941-1.617-74.503-35.294-83.064-46.544-83.846h30.019c.001 0 48.203-5.646 50.16 83.846z"/></g></g><g><circle cx="399.782" cy="320.283" fill="#fdb0a0" r="56.238"/><path d="m456.023 320.281c0 31.065-25.176 56.241-56.241 56.241-30.722 0-55.681-24.616-56.23-55.201 5.522 20.214 24.01 35.066 45.974 35.066 26.32 0 47.666-21.346 47.666-47.666 0-19.963-12.28-37.067-29.704-44.145 27.417 3.751 48.535 27.27 48.535 55.705z" fill="#f89f8e"/><g><g><path d="m398.829 353.689c-7.15 0-13.897-2.384-19.001-6.714-3.254-2.761-3.653-7.636-.892-10.89s7.636-3.652 10.89-.892c2.28 1.935 5.561 3.044 9.003 3.044s6.723-1.11 9.003-3.044c3.255-2.762 8.13-2.361 10.89.892 2.761 3.254 2.361 8.129-.892 10.89-5.103 4.33-11.851 6.714-19.001 6.714z" fill="#ea806f"/><g><g><path d="m426.91 321.092c-.016 0-.03 0-.046 0-4.267-.025-7.75-3.504-7.725-7.771.025-4.252 3.436-7.682 7.682-7.682h.046.087c4.267.025 7.706 3.504 7.682 7.771-.025 4.251-3.48 7.682-7.726 7.682z"/></g><g fill="#a34f41"><path d="m372.74 321.092c-4.267 0-7.769-3.459-7.769-7.726s3.417-7.726 7.684-7.726h.086c4.267 0 7.726 3.459 7.726 7.726 0 4.266-3.459 7.726-7.727 7.726z"/><path d="m426.899 321.092c-4.267 0-7.769-3.459-7.769-7.726s3.416-7.726 7.684-7.726h.086c4.267 0 7.726 3.459 7.726 7.726-.001 4.266-3.46 7.726-7.727 7.726z"/></g></g></g></g></g></g></g></g><g><g><g><g><g><path d="m33.51 236.916h319.448l26.039 31.472c6.701 8.099 19.118 8.099 25.818 0l26.039-31.472h47.636c18.507 0 33.51-15.003 33.51-33.51v-131.543c0-18.507-15.003-33.51-33.51-33.51h-444.98c-18.507.001-33.51 15.003-33.51 33.51v131.543c0 18.508 15.003 33.51 33.51 33.51z" fill="#27e19d"/></g></g><path d="m512 71.865v131.544c0 18.502-14.999 33.512-33.512 33.512h-37.808c18.512 0 33.512-15.01 33.512-33.512v-131.544c0-18.512-14.999-33.512-33.512-33.512h37.808c18.513.001 33.512 15 33.512 33.512z" fill="#1ec186"/><g><path d="m271.389 213.982c-39.27-39.27-102.787-39.514-142.359-.733-39.646 38.855-40.404 103.185-1.64 142.92 31.976 32.777 80.588 39.173 119.062 19.197l36.946 3.631c5.688.559 10.467-4.221 9.908-9.908l-3.631-36.946c19.789-38.114 13.697-86.178-18.286-118.161z" fill="#eef4f5"/><path d="m293.307 369.09c.553 5.684-4.225 10.471-9.908 9.908l-22.163-2.184c2.117-1.841 3.376-4.654 3.08-7.725l-3.309-33.645c-.2-2.069.143-4.167 1.049-6.037 18.11-37.66 11.558-84.207-19.664-115.43-16.05-16.05-36.153-25.577-57.019-28.59 30.479-4.387 62.569 5.15 86.019 28.59 31.976 31.985 38.07 80.049 18.281 118.167z" fill="#cbe5e7"/></g></g></g><g><g><path d="m237.505 345.817h-70.739l-16.01-19.351c-4.12-4.98-11.755-4.98-15.875 0l-16.01 19.351h-70.738c-11.379 0-20.604 9.224-20.604 20.604v86.622c0 11.379 9.225 20.604 20.604 20.604h189.372c11.379 0 20.604-9.225 20.604-20.604v-86.623c0-11.379-9.225-20.603-20.604-20.603z" fill="#fb4a59"/><path d="m258.113 366.421v86.618c0 11.383-9.23 20.604-20.604 20.604h-32.296c11.373 0 20.604-9.22 20.604-20.604v-86.618c0-11.384-9.231-20.604-20.604-20.604h32.296c11.373 0 20.604 9.22 20.604 20.604z" fill="#f82f40"/></g><g><g fill="#eaf6ff"><path d="m182.774 421.782h-2.055v-34.308c0-2.697-1.406-5.198-3.71-6.6-2.303-1.401-5.171-1.501-7.567-.262l-8.803 4.554c-3.79 1.96-5.273 6.622-3.312 10.412 1.548 2.992 4.781 4.548 7.939 4.103v22.101h-1.077c-4.267 0-7.726 3.459-7.726 7.726s3.459 7.726 7.726 7.726h18.585c4.267 0 7.726-3.459 7.726-7.726.001-4.267-3.459-7.726-7.726-7.726z"/><path d="m222.337 421.782h-2.055v-34.308c0-2.697-1.406-5.198-3.71-6.6-2.303-1.401-5.171-1.501-7.567-.262l-8.803 4.554c-3.79 1.96-5.273 6.622-3.312 10.412 1.548 2.992 4.782 4.548 7.939 4.103v22.101h-1.077c-4.267 0-7.726 3.459-7.726 7.726s3.459 7.726 7.726 7.726h18.585c4.267 0 7.726-3.459 7.726-7.726s-3.459-7.726-7.726-7.726z"/></g><g><path d="m114.272 387.363c-11.597-11.597-30.354-11.669-42.039-.216-11.708 11.474-11.932 30.471-.484 42.205 9.443 9.679 23.798 11.568 35.16 5.669l10.91 1.072c1.68.165 3.091-1.246 2.926-2.926l-1.072-10.91c5.843-11.256 4.044-25.449-5.401-34.894z" fill="#eaf6ff"/><path d="m119.676 422.257 1.071 10.91c.165 1.679-1.247 3.091-2.926 2.926l-10.91-1.071c-11.363 5.903-25.724 4.007-35.16-5.666-1.669-1.71-3.101-3.585-4.265-5.563 4.152 2.648 9.086 4.172 14.371 4.172 14.732 0 26.692-11.868 26.836-26.558.093-9.354-4.687-17.699-11.971-22.582 6.418.762 12.62 3.616 17.544 8.54 9.448 9.446 11.251 23.632 5.41 34.892z" fill="#cbe5e7"/></g></g></g></g><g><g><g><path d="m142.982 300.157c-9.673 0-17.513-7.84-17.513-17.513s7.84-17.589 17.513-17.589 17.513 7.763 17.513 17.436v.153c0 9.673-7.841 17.513-17.513 17.513z" fill="#27e19d"/></g><g><g><path d="m160.495 282.487v.153c0 9.678-7.841 17.519-17.51 17.519-3.313 0-6.419-.927-9.066-2.53 5.068-3.061 8.453-8.633 8.453-14.989v-.153c0-6.338-3.367-11.856-8.417-14.908 2.638-1.593 5.726-2.521 9.03-2.521 9.668 0 17.51 7.76 17.51 17.429z" fill="#1ec186"/></g></g></g><g><g><path d="m196.816 300.157c-9.673 0-17.513-7.84-17.513-17.513s7.84-17.589 17.513-17.589 17.513 7.763 17.513 17.436v.153c0 9.673-7.84 17.513-17.513 17.513z" fill="#27e19d"/></g><g><g><path d="m214.329 282.487v.153c0 9.678-7.841 17.519-17.51 17.519-3.313 0-6.419-.927-9.066-2.53 5.068-3.061 8.453-8.633 8.453-14.989v-.153c0-6.338-3.367-11.856-8.417-14.908 2.638-1.593 5.726-2.521 9.03-2.521 9.669 0 17.51 7.76 17.51 17.429z" fill="#1ec186"/></g></g></g><g><g><path d="m250.651 300.157c-9.673 0-17.513-7.84-17.513-17.513s7.84-17.589 17.513-17.589 17.513 7.763 17.513 17.436v.153c0 9.673-7.84 17.513-17.513 17.513z" fill="#27e19d"/></g><g><g><path d="m268.164 282.487v.153c0 9.678-7.841 17.519-17.51 17.519-3.313 0-6.419-.927-9.066-2.53 5.068-3.061 8.453-8.633 8.453-14.989v-.153c0-6.338-3.367-11.856-8.417-14.908 2.638-1.593 5.726-2.521 9.03-2.521 9.669 0 17.51 7.76 17.51 17.429z" fill="#1ec186"/></g></g></g></g></g><g fill="#eef4f5"><path d="m456.02 78.093h-30.855c-4.267 0-7.726 3.459-7.726 7.726s3.459 7.726 7.726 7.726h7.701v42.258c0 4.267 3.459 7.726 7.726 7.726s7.726-3.459 7.726-7.726v-42.258h7.701c4.267 0 7.726-3.459 7.726-7.726.001-4.267-3.458-7.726-7.725-7.726z"/><path d="m332.679 93.545c4.267 0 7.726-3.459 7.726-7.726s-3.459-7.726-7.726-7.726h-30.855c-4.267 0-7.726 3.459-7.726 7.726v24.763c-.002.077-.012.152-.012.229s.009.152.012.229v24.763c0 4.267 3.459 7.726 7.726 7.726h30.855c4.267 0 7.726-3.459 7.726-7.726s-3.459-7.726-7.726-7.726h-23.129v-9.54h16.341c4.267 0 7.726-3.459 7.726-7.726s-3.459-7.726-7.726-7.726h-16.341v-9.539h23.129z"/><path d="m394.489 78.093c-4.267 0-7.726 3.459-7.726 7.726v22.759l-16.554-26.817c-1.814-2.94-5.361-4.318-8.684-3.374-3.324.943-5.617 3.978-5.617 7.433v49.984c0 4.267 3.459 7.726 7.726 7.726s7.726-3.459 7.726-7.726v-22.759l16.554 26.817c1.433 2.321 3.945 3.669 6.574 3.669.701 0 1.41-.096 2.109-.294 3.324-.944 5.617-3.978 5.617-7.433v-49.985c.001-4.267-3.458-7.726-7.725-7.726z"/><path d="m132.939 78.093c-12.767 0-23.153 10.387-23.153 23.153v19.13c0 12.767 10.387 23.153 23.153 23.153 12.767 0 23.154-10.387 23.154-23.153v-19.13c0-12.767-10.387-23.153-23.154-23.153zm7.701 42.283c0 4.246-3.455 7.701-7.701 7.701s-7.701-3.455-7.701-7.701v-19.13c0-4.246 3.455-7.701 7.701-7.701s7.701 3.455 7.701 7.701z"/><path d="m71.411 93.544c2.058 0 3.991.799 5.442 2.249.936.936 1.621 2.101 1.98 3.368 1.163 4.106 5.44 6.491 9.54 5.327 4.106-1.163 6.49-5.435 5.327-9.54-1.076-3.799-3.124-7.285-5.921-10.081-4.369-4.369-10.182-6.776-16.368-6.776-12.769 0-23.157 10.382-23.157 23.144v19.138c0 6.186 2.406 11.999 6.776 16.368 4.378 4.378 10.195 6.789 16.381 6.789 10.327 0 19.494-6.943 22.292-16.883 1.156-4.108-1.236-8.375-5.344-9.531-4.11-1.156-8.375 1.235-9.531 5.344-.931 3.307-3.981 5.617-7.418 5.617-2.058 0-3.995-.804-5.455-2.263-1.451-1.451-2.249-3.383-2.249-5.442v-19.138c.001-4.24 3.457-7.69 7.705-7.69z"/><path d="m212.821 78.667c-2.902-1.187-6.238-.5-8.437 1.739l-9.914 10.099-9.913-10.099c-2.199-2.24-5.534-2.927-8.437-1.739-2.905 1.188-4.803 4.014-4.803 7.152v49.984c0 4.267 3.459 7.726 7.726 7.726s7.726-3.459 7.726-7.726v-31.085l2.187 2.228c1.453 1.48 3.44 2.314 5.514 2.314s4.061-.834 5.514-2.314l2.188-2.228v31.085c0 4.267 3.459 7.726 7.726 7.726s7.726-3.459 7.726-7.726v-49.984c0-3.138-1.898-5.964-4.803-7.152z"/><path d="m274.351 78.667c-2.903-1.187-6.238-.5-8.437 1.739l-9.914 10.099-9.914-10.099c-2.198-2.24-5.533-2.927-8.437-1.739-2.905 1.188-4.803 4.014-4.803 7.152v49.984c0 4.267 3.459 7.726 7.726 7.726s7.726-3.459 7.726-7.726v-31.085l2.188 2.228c1.453 1.48 3.44 2.314 5.514 2.314s4.061-.834 5.514-2.314l2.187-2.228v31.085c0 4.267 3.459 7.726 7.726 7.726s7.726-3.459 7.726-7.726v-49.984c.001-3.138-1.897-5.964-4.802-7.152z"/></g><g fill="#0d9e66"><path d="m458.781 178.884h-95.146c-4.267 0-7.726-3.459-7.726-7.726s3.459-7.726 7.726-7.726h95.146c4.267 0 7.726 3.459 7.726 7.726s-3.459 7.726-7.726 7.726z"/><path d="m458.781 208.491h-157.76c-4.267 0-7.726-3.459-7.726-7.726s3.459-7.726 7.726-7.726h157.76c4.267 0 7.726 3.459 7.726 7.726s-3.459 7.726-7.726 7.726z"/></g></g></svg>