<svg id="Layer_1" enable-background="new 0 0 256 256" height="512" viewBox="0 0 256 256" width="512" xmlns="http://www.w3.org/2000/svg"><path d="m192.722 87.158h-170.277c-3.169 0-5.738 2.569-5.738 5.738v14.656c0 3.169 2.569 5.737 5.738 5.737h170.278c3.169 0 5.738-2.569 5.738-5.737v-14.656c-.001-3.169-2.57-5.738-5.739-5.738z" fill="#ef6d7a"/><path d="m192.723 85.658h-125.779c-.828 0-1.5.671-1.5 1.5s.672 1.5 1.5 1.5h125.778c2.337 0 4.237 1.901 4.237 4.238v14.656c0 2.337-1.9 4.238-4.237 4.238h-170.278c-2.337 0-4.238-1.901-4.238-4.238v-14.656c0-2.337 1.901-4.238 4.238-4.238h29.802c.828 0 1.5-.671 1.5-1.5s-.672-1.5-1.5-1.5h-29.802c-3.991 0-7.238 3.247-7.238 7.238v14.656c0 3.991 3.247 7.238 7.238 7.238h170.278c3.99 0 7.237-3.247 7.237-7.238v-14.656c.001-3.991-3.246-7.238-7.236-7.238z" fill="#3a312a"/><path d="m26.854 113.29v119.893c0 3.528 2.86 6.388 6.388 6.388h145.977c3.528 0 6.388-2.86 6.388-6.388v-119.893z" fill="#ef6d7a"/><path d="m185.606 111.79h-158.752c-.828 0-1.5.671-1.5 1.5v24.006c0 .829.672 1.5 1.5 1.5s1.5-.671 1.5-1.5v-22.506h155.752v118.393c0 2.695-2.192 4.888-4.888 4.888h-145.976c-2.695 0-4.888-2.192-4.888-4.888v-81.299c0-.829-.672-1.5-1.5-1.5s-1.5.671-1.5 1.5v81.299c0 4.349 3.538 7.888 7.888 7.888h145.977c4.35 0 7.888-3.539 7.888-7.888v-119.893c-.001-.829-.672-1.5-1.501-1.5z" fill="#3a312a"/><path d="m78.004 87.158h60.788v26.132h-60.788z" fill="#d6df58"/><path d="m138.793 85.658h-60.789c-.828 0-1.5.671-1.5 1.5v26.132c0 .829.672 1.5 1.5 1.5h60.789c.828 0 1.5-.671 1.5-1.5v-26.132c0-.828-.672-1.5-1.5-1.5zm-1.5 26.132h-57.789v-23.132h57.789z" fill="#3a312a"/><path d="m78.004 113.307v40.277l18.441-13.041 6.248 13.041 7.471-6.792 8.694 6.792 9.509-7.539 10.426 7.539v-40.277z" fill="#d6df58"/><path d="m138.793 111.808h-60.789c-.828 0-1.5.671-1.5 1.5v40.276c0 .561.313 1.074.811 1.332.497.258 1.099.217 1.556-.107l16.989-12.015 5.481 11.438c.205.427.6.733 1.064.824.096.018.192.028.288.028.37 0 .73-.137 1.009-.39l6.535-5.941 7.697 6.014c.545.425 1.313.424 1.855-.007l8.619-6.833 9.505 6.873c.458.331 1.06.376 1.562.121.502-.256.817-.772.817-1.336v-40.276c.001-.83-.671-1.501-1.499-1.501zm-1.5 38.84-8.047-5.819c-.544-.394-1.284-.378-1.811.04l-8.584 6.806-7.764-6.065c-.272-.212-.599-.318-.924-.318-.362 0-.724.131-1.009.39l-5.98 5.437-5.378-11.224c-.19-.398-.548-.692-.976-.803-.427-.111-.882-.028-1.243.227l-16.074 11.367v-35.878h57.789v35.84z" fill="#3a312a"/><path d="m93.116 214.168h-47.408c-1.951 0-3.532 1.581-3.532 3.532v3.804c0 1.951 1.581 3.532 3.532 3.532h47.408c1.951 0 3.532-1.581 3.532-3.532v-3.804c0-1.95-1.581-3.532-3.532-3.532z" fill="#87796f"/><path d="m93.116 212.669h-47.408c-2.774 0-5.031 2.257-5.031 5.032v3.804c0 2.774 2.257 5.032 5.031 5.032h47.408c2.774 0 5.032-2.257 5.032-5.032v-3.805c0-2.774-2.257-5.031-5.032-5.031zm2.032 8.835c0 1.12-.912 2.032-2.032 2.032h-47.408c-1.12 0-2.031-.912-2.031-2.032v-3.804c0-1.12.911-2.032 2.031-2.032h47.408c1.12 0 2.032.912 2.032 2.032z" fill="#3a312a"/><path d="m47.141 26.106c-.974 11.564-13.025 13.39-13.025 13.39 10.347.487 12.925 14.059 12.925 14.059.221-9.677 13.321-14.202 13.321-14.202-9.812-.587-13.221-13.247-13.221-13.247z" fill="#d6df58"/><path d="m60.453 37.855c-8.604-.514-11.832-12.024-11.863-12.14-.191-.702-.849-1.165-1.584-1.102-.725.066-1.298.642-1.359 1.367-.859 10.215-11.313 11.963-11.754 12.032-.763.115-1.313.79-1.273 1.561.04.77.657 1.384 1.428 1.421 9.027.425 11.498 12.718 11.521 12.842.138.711.76 1.217 1.473 1.217.042 0 .084-.002.126-.005.765-.064 1.357-.693 1.375-1.459.193-8.508 12.191-12.777 12.313-12.819.676-.235 1.092-.914.994-1.623-.1-.708-.683-1.249-1.397-1.292zm-13.566 10.346c-1.356-3.13-3.709-6.907-7.587-8.876 2.932-1.405 6.409-3.913 8.202-8.273 1.551 3.071 4.199 6.88 8.334 8.722-3.008 1.64-6.923 4.405-8.949 8.427z" fill="#3a312a"/><path d="m25.442 43.087c-.689 8.179-9.212 9.471-9.212 9.471 7.318.344 9.142 9.944 9.142 9.944.156-6.845 9.422-10.046 9.422-10.046-6.941-.415-9.352-9.369-9.352-9.369z" fill="#d6df58"/><path d="m34.884 50.958c-5.766-.345-7.972-8.185-7.994-8.264-.189-.702-.856-1.16-1.581-1.102-.726.065-1.3.643-1.361 1.368-.578 6.871-7.646 8.067-7.941 8.114-.763.115-1.313.79-1.273 1.561.04.77.657 1.384 1.428 1.421 6.034.284 7.723 8.643 7.738 8.725.136.712.759 1.22 1.473 1.22.041 0 .083-.002.125-.005.765-.063 1.358-.694 1.376-1.461.13-5.709 8.331-8.634 8.412-8.662.676-.234 1.093-.913.996-1.622-.099-.708-.684-1.249-1.398-1.293zm-9.585 6.796c-.924-1.886-2.34-3.947-4.446-5.28 1.855-1.041 3.697-2.629 4.87-4.916 1.058 1.874 2.654 3.954 4.941 5.223-1.85 1.101-3.989 2.74-5.365 4.973z" fill="#3a312a"/><path d="m25.442 16.429c-.689 8.179-9.212 9.47-9.212 9.47 7.318.344 9.142 9.944 9.142 9.944.156-6.845 9.422-10.045 9.422-10.045-6.941-.415-9.352-9.369-9.352-9.369z" fill="#d6df58"/><path d="m34.884 24.301c-5.766-.345-7.972-8.186-7.994-8.265-.189-.702-.856-1.166-1.581-1.102-.726.065-1.3.643-1.361 1.368-.578 6.871-7.646 8.067-7.941 8.114-.763.115-1.313.79-1.273 1.561.04.77.657 1.384 1.428 1.421 6.034.284 7.723 8.644 7.738 8.726.136.713.759 1.22 1.473 1.22.041 0 .083-.001.125-.005.765-.063 1.358-.694 1.376-1.461.13-5.709 8.331-8.634 8.412-8.662.676-.234 1.093-.913.996-1.622-.099-.708-.684-1.25-1.398-1.293zm-9.585 6.795c-.924-1.885-2.34-3.947-4.446-5.28 1.855-1.041 3.697-2.629 4.87-4.916 1.058 1.874 2.654 3.954 4.941 5.223-1.85 1.102-3.989 2.741-5.365 4.973z" fill="#3a312a"/><path d="m224.87 95.723-46.213-80.044c-.268-.464-.763-.75-1.299-.75s-1.031.286-1.299.75l-46.214 80.044c-.414.717-.169 1.635.549 2.049.715.414 1.634.169 2.049-.549l44.915-77.794 44.914 77.794c.277.482.782.75 1.3.75.255 0 .513-.065.749-.202.718-.413.963-1.331.549-2.048z" fill="#3a312a"/><path d="m230.116 76.196h-34.016-7.63-63.869c-5.332 0-9.654 4.322-9.654 9.654v45.495c0 5.332 4.322 9.654 9.654 9.654h105.515c5.332 0 9.654-4.322 9.654-9.654v-45.495c0-5.332-4.322-9.654-9.654-9.654z" fill="#87796f"/><path d="m230.115 74.696h-105.514c-6.15 0-11.154 5.004-11.154 11.154v45.496c0 6.15 5.004 11.154 11.154 11.154h105.515c6.15 0 11.154-5.004 11.154-11.154v-45.496c0-6.15-5.004-11.154-11.155-11.154zm8.155 56.65c0 4.496-3.658 8.154-8.154 8.154h-105.515c-4.496 0-8.154-3.658-8.154-8.154v-45.496c0-4.496 3.658-8.154 8.154-8.154h105.515c4.496 0 8.154 3.658 8.154 8.154z" fill="#3a312a"/><path d="m227.291 83.036h-99.866c-2.449 0-4.434 1.985-4.434 4.434v42.255c0 2.449 1.985 4.434 4.434 4.434h99.866c2.449 0 4.434-1.985 4.434-4.434v-42.255c0-2.448-1.985-4.434-4.434-4.434z" fill="#f7e3c7"/><path d="m227.291 81.537h-99.866c-3.271 0-5.934 2.662-5.934 5.934v42.255c0 3.272 2.662 5.934 5.934 5.934h99.866c3.271 0 5.934-2.662 5.934-5.934v-42.256c0-3.272-2.662-5.933-5.934-5.933zm2.934 48.189c0 1.618-1.316 2.934-2.934 2.934h-99.866c-1.617 0-2.934-1.316-2.934-2.934v-42.256c0-1.618 1.316-2.934 2.934-2.934h99.866c1.617 0 2.934 1.316 2.934 2.934z" fill="#3a312a"/><path d="m177.358 16.429c-7.566 0-13.699 6.133-13.699 13.699s6.133 13.699 13.699 13.699 13.7-6.134 13.7-13.699c-.001-7.565-6.134-13.699-13.7-13.699z" fill="#d4db56"/><path d="m177.358 14.929c-8.382 0-15.2 6.818-15.2 15.2 0 8.381 6.818 15.199 15.2 15.199 8.381 0 15.199-6.818 15.199-15.199.001-8.381-6.818-15.2-15.199-15.2zm0 27.399c-6.728 0-12.2-5.473-12.2-12.199 0-6.727 5.473-12.2 12.2-12.2s12.199 5.473 12.199 12.2c.001 6.726-5.472 12.199-12.199 12.199z" fill="#3a312a"/><path d="m177.358 24.531c-3.091 0-5.597 2.506-5.597 5.598 0 3.091 2.506 5.597 5.597 5.597 3.092 0 5.598-2.506 5.598-5.597 0-3.092-2.507-5.598-5.598-5.598z" fill="#f6e2c6"/><g fill="#3a312a"><path d="m177.358 23.031c-3.914 0-7.098 3.184-7.098 7.098s3.184 7.098 7.098 7.098c3.913 0 7.097-3.184 7.097-7.098s-3.184-7.098-7.097-7.098zm0 11.196c-2.26 0-4.098-1.838-4.098-4.098s1.838-4.098 4.098-4.098c2.259 0 4.097 1.838 4.097 4.098s-1.838 4.098-4.097 4.098z"/><path d="m150.571 109.275c-.563-.934-1.464-1.716-2.7-2.346-1.238-.631-3.286-1.255-6.144-1.87-1.156-.241-1.887-.501-2.195-.779-.318-.27-.476-.573-.476-.91 0-.462.192-.854.577-1.177s.958-.484 1.719-.484c.924 0 1.648.216 2.172.65.525.433.868 1.126 1.032 2.078l6.165-.361c-.27-2.195-1.114-3.795-2.534-4.801s-3.482-1.509-6.187-1.509c-2.204 0-3.94.277-5.205.83-1.265.554-2.214 1.314-2.844 2.282-.63.967-.945 1.995-.945 3.082 0 1.656.615 3.018 1.847 4.086 1.223 1.069 3.268 1.925 6.137 2.57 1.752.385 2.869.794 3.35 1.227.481.434.722.925.722 1.473 0 .578-.253 1.086-.759 1.523-.505.439-1.225.657-2.159.657-1.251 0-2.214-.428-2.888-1.285-.414-.53-.688-1.299-.823-2.31l-6.223.389c.183 2.137.967 3.899 2.353 5.285s3.879 2.079 7.479 2.079c2.051 0 3.749-.296 5.097-.887 1.348-.593 2.397-1.461 3.148-2.607.751-1.145 1.126-2.397 1.126-3.754.002-1.153-.279-2.198-.842-3.131z"/><path d="m174.44 100.6c-1.91-1.89-4.62-2.83-8.15-2.83-3.43 0-6.12.96-8.04 2.88-1.92 1.93-2.89 4.62-2.89 8.08 0 2.47.49 4.53 1.46 6.18.97 1.64 2.24 2.84 3.81 3.61 1.56.76 3.54 1.14 5.92 1.14 2.35 0 4.31-.44 5.89-1.33 1.57-.88 2.77-2.11 3.61-3.69.83-1.58 1.25-3.61 1.25-6.09 0-3.4-.96-6.05-2.86-7.95zm-4.84 12.79c-.77.91-1.86 1.37-3.26 1.37-1.37 0-2.45-.47-3.25-1.4-.79-.93-1.19-2.47-1.19-4.61 0-2.15.4-3.7 1.2-4.63s1.86-1.4 3.18-1.4c1.37 0 2.46.46 3.27 1.38.8.92 1.2 2.37 1.2 4.37 0 2.36-.38 4.01-1.15 4.92z"/><path d="m188.838 114.083v-15.955h-6.541v21.167h16.75v-5.212z"/><path d="m222.54 104.54c-.34-1.29-.9-2.42-1.67-3.39-.77-.98-1.75-1.72-2.93-2.24-1.17-.52-2.72-.78-4.64-.78h-9.71v21.16h9.71c1.17 0 2.47-.19 3.9-.57 1.05-.28 2.03-.84 2.95-1.68.91-.85 1.63-1.89 2.14-3.14.52-1.24.77-3 .77-5.26 0-1.44-.17-2.81-.52-4.1zm-6.54 7.9c-.32.76-.78 1.29-1.35 1.59-.58.3-1.55.46-2.92.46h-1.6v-11.57h1.63c1.69 0 2.9.42 3.64 1.24.73.83 1.09 2.37 1.09 4.61 0 1.69-.16 2.92-.49 3.67z"/></g><path d="m164.11 142.5v90.68c0 2.7-2.2 4.89-4.89 4.89h20c2.69 0 4.89-2.19 4.89-4.89v-90.68z" fill="#d34e5c"/></svg>