<svg id="Layer_1" enable-background="new 0 0 128 128" height="512" viewBox="0 0 128 128" width="512" xmlns="http://www.w3.org/2000/svg"><path d="m109.759 17.458h-87.517c-6.75 0-12.241 5.49-12.241 12.239v49.711c0 6.75 5.491 12.242 12.241 12.242h55.035l25.528 22.639c.187.166.424.252.664.252.139 0 .279-.029.41-.088.359-.161.59-.519.59-.912v-21.89h5.291c6.749 0 12.24-5.492 12.24-12.242v-49.712c-.001-6.749-5.492-12.239-12.241-12.239z" fill="#e6e7e8"/><path d="m105.759 86.651c6.208 0 11.24-5.032 11.24-11.242v-49.712c0-6.205-5.032-11.239-11.24-11.239h-87.517c-6.209 0-11.241 5.034-11.241 11.239v49.711c0 6.21 5.032 11.242 11.241 11.242h55.414l25.812 22.891v-22.89z" fill="#fff"/><path d="m106.384 87.276c6.208 0 11.24-5.032 11.24-11.242v-49.712c0-6.205-5.032-11.239-11.24-11.239h-87.517c-6.209 0-11.241 5.034-11.241 11.239v49.711c0 6.21 5.032 11.242 11.241 11.242h55.414l25.812 22.891v-22.89z" fill="#fa759e"/><path d="m90.932 34.903-15.583 7.109v-7.731c0-2.584-2.095-4.679-4.679-4.679h-38.768c-2.584 0-4.679 2.095-4.679 4.679v32.336c0 2.584 2.095 4.679 4.679 4.679h38.768c2.584 0 4.679-2.095 4.679-4.679v-7.731l15.583 7.109c3.098 1.413 6.62-.851 6.62-4.257v-22.578c.001-3.406-3.522-5.671-6.62-4.257z" fill="#fff"/><path d="m90.932 38.029-12.835 5.855c-1.286.587-2.748-.353-2.748-1.767v-.105-4.605c0-2.584-2.095-4.679-4.679-4.679h-38.768c-2.584 0-4.679 2.095-4.679 4.679v29.211c0 2.584 2.095 4.679 4.679 4.679h38.768c2.584 0 4.679-2.095 4.679-4.679v-4.605-3.125l15.583 7.108c3.098 1.413 6.621-.851 6.621-4.257v-19.454c0-3.405-3.523-5.67-6.621-4.256z" fill="#6dc9f7"/><g fill="#3a2c60"><path d="m105.759 13.459h-12.814c-.552 0-1 .447-1 1s.448 1 1 1h12.814c5.646 0 10.24 4.593 10.24 10.238v49.711c0 5.647-4.594 10.242-10.24 10.242h-6.291c-.552 0-1 .447-1 1v20.668l-24.148-21.416c-.183-.162-.419-.252-.664-.252h-55.414c-5.647 0-10.241-4.595-10.241-10.242v-49.711c0-5.646 4.594-10.238 10.241-10.238h54.572c.552 0 1-.447 1-1s-.448-1-1-1h-54.572c-6.75 0-12.241 5.49-12.241 12.238v49.711c0 6.75 5.491 12.242 12.241 12.242h55.035l25.528 22.64c.187.166.424.252.664.252.139 0 .279-.029.41-.088.359-.161.59-.519.59-.912v-21.892h5.291c6.749 0 12.24-5.492 12.24-12.242v-49.711c-.001-6.748-5.492-12.238-12.241-12.238z"/><path d="m77.942 15.459h9.315c.552 0 1-.447 1-1s-.448-1-1-1h-9.315c-.552 0-1 .447-1 1s.447 1 1 1z"/><path d="m31.902 28.601c-3.131 0-5.679 2.548-5.679 5.68v32.336c0 3.131 2.547 5.679 5.679 5.679h38.768c3.131 0 5.679-2.548 5.679-5.679v-6.175l14.168 6.463c1.767.806 3.794.659 5.428-.391 1.633-1.05 2.607-2.835 2.607-4.776v-22.578c0-1.941-.975-3.728-2.608-4.777-1.634-1.05-3.662-1.193-5.427-.39l-14.168 6.463v-6.175c0-3.132-2.547-5.68-5.679-5.68zm42.447 5.68v7.73c0 .34.173.657.459.841.287.185.646.209.956.069l15.583-7.108c1.145-.522 2.458-.429 3.516.252 1.058.68 1.689 1.837 1.689 3.095v22.578c0 1.258-.631 2.414-1.689 3.094-1.058.681-2.372.775-3.516.253l-15.583-7.108c-.31-.14-.669-.115-.956.069-.286.184-.459.501-.459.841v7.73c0 2.028-1.65 3.679-3.679 3.679h-38.768c-2.028 0-3.679-1.65-3.679-3.679v-32.336c0-2.029 1.65-3.68 3.679-3.68h38.768c2.028 0 3.679 1.651 3.679 3.68z"/></g><path d="m42.992 38.424 18.637 10.76c1.068.617 1.068 2.158 0 2.775l-18.637 10.76c-1.068.617-2.403-.154-2.403-1.387v-21.52c0-1.234 1.335-2.005 2.403-1.388z" fill="#fff"/></svg>