<?xml version="1.0" encoding="iso-8859-1"?>
<!-- Generator: Adobe Illustrator 19.0.0, SVG Export Plug-In . SVG Version: 6.00 Build 0)  -->
<svg version="1.1" id="Capa_1" xmlns="http://www.w3.org/2000/svg" xmlns:xlink="http://www.w3.org/1999/xlink" x="0px" y="0px"
	 viewBox="0 0 497.371 497.371" style="enable-background:new 0 0 497.371 497.371;" xml:space="preserve">
<circle style="fill:#849DA9;" cx="109.714" cy="131.657" r="43.886"/>
<circle style="fill:#F6E272;" cx="212.114" cy="117.029" r="58.514"/>
<path style="fill:#EF3956;" d="M337.92,438.857H42.423c-16.091,0-27.794-13.166-27.794-27.794V209.189
	c0-16.091,13.166-27.794,27.794-27.794H337.92c16.091,0,27.794,13.166,27.794,27.794v203.337
	C365.714,427.154,354.011,438.857,337.92,438.857z"/>
<g style="opacity:0.1;">
	<path style="fill:#030303;" d="M276.48,179.931C147.749,197.486,48.274,307.2,48.274,438.857h-4.389
		c-16.091,0-29.257-13.166-29.257-29.257V209.189c0-16.091,13.166-29.257,29.257-29.257H276.48z"/>
</g>
<path style="fill:#030303;" d="M337.92,453.486H43.886C20.48,453.486,0,434.469,0,409.6V209.189
	c0-23.406,19.017-43.886,43.886-43.886H337.92c23.406,0,43.886,19.017,43.886,43.886v201.874
	C380.343,434.469,361.326,453.486,337.92,453.486z M43.886,196.023c-7.314,0-13.166,5.851-13.166,13.166v201.874
	c0,7.314,5.851,13.166,13.166,13.166H337.92c7.314,0,13.166-5.851,13.166-13.166V209.189c0-7.314-5.851-13.166-13.166-13.166H43.886
	L43.886,196.023z"/>
<polygon style="fill:#C0D0D6;" points="482.743,392.046 365.714,352.549 365.714,266.24 482.743,226.743 "/>
<g style="opacity:0.1;">
	<polygon style="fill:#030303;" points="413.989,250.149 365.714,266.24 365.714,352.549 413.989,368.64 	"/>
</g>
<path style="fill:#030303;" d="M478.354,406.674l-117.029-39.497c-5.851-1.463-10.24-7.314-10.24-14.629V266.24
	c0-5.851,4.389-11.703,10.24-14.629l117.029-39.497c4.389-1.463,10.24-1.463,13.166,1.463c4.389,2.926,5.851,7.314,5.851,11.703
	v165.303c0,4.389-2.926,8.777-5.851,11.703C487.131,406.674,482.743,408.137,478.354,406.674z M380.343,342.309l86.309,29.257
	v-122.88l-86.309,29.257L380.343,342.309L380.343,342.309z"/>
<circle style="fill:#FAF0B7;" cx="109.714" cy="131.657" r="43.886"/>
<g>
	<path style="fill:#030303;" d="M109.714,190.171c-32.183,0-58.514-26.331-58.514-58.514s26.331-58.514,58.514-58.514
		s58.514,26.331,58.514,58.514S141.897,190.171,109.714,190.171z M109.714,102.4c-16.091,0-29.257,13.166-29.257,29.257
		s13.166,29.257,29.257,29.257s29.257-13.166,29.257-29.257S125.806,102.4,109.714,102.4z"/>
	<path style="fill:#030303;" d="M212.114,190.171c-40.96,0-73.143-33.646-73.143-73.143c0-40.96,33.646-73.143,73.143-73.143
		c40.96,0,73.143,33.646,73.143,73.143S253.074,190.171,212.114,190.171z M212.114,73.143c-23.406,0-43.886,19.017-43.886,43.886
		c0,23.406,19.017,43.886,43.886,43.886c23.406,0,43.886-19.017,43.886-43.886S236.983,73.143,212.114,73.143z"/>
</g>
<path style="fill:#FFFFFF;" d="M190.171,377.417H86.309c-8.777,0-14.629-7.314-14.629-14.629c0-7.314,7.314-14.629,14.629-14.629
	h103.863c8.777,0,14.629,7.314,14.629,14.629C204.8,370.103,198.949,377.417,190.171,377.417z"/>
<g>
</g>
<g>
</g>
<g>
</g>
<g>
</g>
<g>
</g>
<g>
</g>
<g>
</g>
<g>
</g>
<g>
</g>
<g>
</g>
<g>
</g>
<g>
</g>
<g>
</g>
<g>
</g>
<g>
</g>
</svg>
